<svg width="100" height="74" viewBox="0 0 100 74" fill="none" xmlns="http://www.w3.org/2000/svg">
<g clip-path="url(#clip0_772_4945)">
<path d="M52.0417 72.9239C41.2704 72.7001 32.854 72.631 24.4474 72.3104C19.6236 72.1269 14.8045 71.6314 10.0061 71.0787C8.20889 70.8026 6.45495 70.2936 4.78807 69.5644C2.23358 68.5508 0.826066 66.5192 0.439181 63.8033C0.285282 62.8305 0.21036 61.8466 0.215051 60.8614C0.359587 53.895 0.52596 46.929 0.713939 39.9631C0.871316 33.9825 1.0452 28.0031 1.23564 22.025C1.34671 18.6576 1.43438 15.2853 1.69791 11.9287C2.05487 7.38234 4.18069 4.0754 8.72536 2.71084C9.98155 2.27297 11.2785 1.96363 12.5966 1.78747C17.6892 1.34386 22.7873 0.803069 27.8918 0.68867C41.0692 0.393207 54.2491 0.218102 67.4315 0.163234C74.0942 0.0638789 80.7548 0.464991 87.3581 1.3632C89.4347 1.67203 91.4901 2.10929 93.513 2.67257C94.7507 2.97084 95.8815 3.60913 96.7782 4.5159C97.6753 5.4227 98.3032 6.56225 98.5917 7.80697C98.9921 9.15232 99.2397 10.5389 99.3294 11.9401C99.5458 19.3975 99.7573 26.8573 99.7938 34.3171C99.8347 42.7682 99.4372 51.2087 97.6987 59.5071C97.1249 62.2396 96.1159 64.8827 95.2552 67.5505C94.7085 69.2455 93.3384 70.0751 91.7659 70.6409C88.6966 71.7446 85.4954 72.1363 82.2716 72.2569C71.413 72.6647 60.5561 73.2211 52.0417 72.9239ZM93.6704 46.0134C93.3729 45.9537 93.0716 45.9146 92.7688 45.8953C87.7983 46.1591 82.8294 46.6039 77.8573 46.652C72.8163 46.7006 67.7626 46.5232 62.738 46.1377C58.4823 45.8113 56.5384 43.8332 55.5114 39.6947C54.6983 36.4158 54.8327 33.1048 55.3692 29.8391C56.0606 25.6286 57.8093 23.9327 62.0684 23.1204C67.2286 22.0893 72.479 21.5835 77.7405 21.6106C82.3692 21.6727 86.9975 21.7472 91.6261 21.799C92.3614 21.8073 93.0979 21.7229 94.0987 21.6662C93.8765 17.8535 93.7106 14.2792 93.4429 10.713C93.3257 9.16125 92.5052 8.13532 90.8331 7.90323C87.5757 7.45057 84.3388 6.642 81.0716 6.50414C72.6675 6.14819 64.2511 5.9326 55.8397 5.93177C46.0917 5.93177 36.3433 6.19259 26.5966 6.39793C23.6593 6.45966 20.7209 6.65101 17.793 6.90038C15.6327 7.08433 13.4823 7.41855 11.3388 7.75805C8.22409 8.25186 6.62204 10.4139 5.99499 13.2463C5.52126 15.4473 5.27958 17.6921 5.27376 19.9439C5.17991 33.5336 5.17823 47.1236 5.14831 60.7137C5.14831 61.2075 5.14831 61.7013 5.1893 62.1914C5.32249 63.7288 5.97454 64.8711 7.57249 65.2831C8.45241 65.5098 9.3118 65.8464 10.2036 65.99C15.8934 66.9085 21.633 67.146 27.3859 67.2694C45.9692 67.6682 64.5515 68.1838 83.1237 66.869C85.5052 66.7007 87.8425 66.4279 89.936 65.4617C92.4257 59.1516 93.32 52.7152 93.6704 46.0134ZM93.9356 26.238C87.4532 26.4101 81.1487 26.45 74.8573 26.7911C70.8819 27.0072 66.9188 27.598 62.972 28.1684C60.9708 28.4564 60.4827 28.9696 60.3671 30.8732C60.2015 33.3967 60.1991 35.9282 60.3597 38.452C60.5143 40.7004 61.077 41.1144 63.3729 41.516C64.1999 41.6605 65.0352 41.7687 65.8708 41.8518C72.879 42.5514 79.8806 42.0283 86.8831 41.7695C89.2384 41.6814 91.588 41.4403 93.8704 41.2757C94.5331 38.447 94.5393 28.7075 93.9347 26.238H93.9356Z" fill="white"/>
<path d="M69.9371 30.0187C72.6309 29.4838 74.3223 31.9742 74.3104 34.1935C74.2969 36.7082 72.4793 38.5424 69.9252 38.5934C67.2354 38.6469 64.8764 36.5856 64.9387 34.2359C65.0035 31.7664 67.0781 30.0171 69.9371 30.0187Z" fill="white"/>
</g>
<defs>
<clipPath id="clip0_772_4945">
<rect width="100" height="73.2484" fill="white"/>
</clipPath>
</defs>
</svg>
