<svg width="28" height="28" viewBox="0 0 28 28" fill="none" xmlns="http://www.w3.org/2000/svg">
<g clip-path="url(#clip0_101_3028)">
<path d="M14 25.6667C7.55651 25.6667 2.33334 20.4435 2.33334 14C2.33334 7.5565 7.55651 2.33333 14 2.33333C20.4435 2.33333 25.6667 7.5565 25.6667 14C25.6667 20.4435 20.4435 25.6667 14 25.6667ZM14 23.3333C16.4754 23.3333 18.8493 22.35 20.5997 20.5997C22.35 18.8493 23.3333 16.4754 23.3333 14C23.3333 11.5246 22.35 9.15068 20.5997 7.40034C18.8493 5.65 16.4754 4.66667 14 4.66667C11.5247 4.66667 9.15069 5.65 7.40035 7.40034C5.65001 9.15068 4.66668 11.5246 4.66668 14C4.66668 16.4754 5.65001 18.8493 7.40035 20.5997C9.15069 22.35 11.5247 23.3333 14 23.3333V23.3333ZM14 12.3503L17.2993 9.04983L18.9502 10.7007L15.6497 14L18.9502 17.2993L17.2993 18.9502L14 15.6497L10.7007 18.9502L9.04984 17.2993L12.3503 14L9.04984 10.7007L10.7007 9.04983L14 12.3503Z" fill="#EC1E1E"/>
</g>
<defs>
<clipPath id="clip0_101_3028">
<rect width="28" height="28" fill="white"/>
</clipPath>
</defs>
</svg>
