<svg width="98" height="41" viewBox="0 0 98 41" fill="none" xmlns="http://www.w3.org/2000/svg">
<path d="M0 0V41H8.65185V0H0Z" fill="white"/>
<path d="M12.6575 41L12.5919 0H17.0489L43.1356 27.7508V0H47.5926V41H43.2011L17.0489 12.8537V41H12.6575Z" fill="white"/>
<path d="M51.5327 41V0H60.1845V41H51.5327Z" fill="white"/>
<path fill-rule="evenodd" clip-rule="evenodd" d="M64.1246 0V41H72.7765V23.2026H81.2972C102.14 23.2026 103.32 1.60929e-05 81.2972 0H64.1246ZM78.741 19.3794H72.7765V3.69133H78.741C81.3294 3.69133 83.6581 4.34874 85.361 5.53699C88.5726 7.77815 90.4079 19.3794 78.741 19.3794Z" fill="white"/>
</svg>
