<svg width="17" height="19" viewBox="0 0 17 19" fill="none" xmlns="http://www.w3.org/2000/svg">
<path d="M8.49998 13.875C11.7042 13.875 14.5069 15.2531 16.0311 17.3094L14.4194 18.0715C13.1786 16.6015 10.9911 15.625 8.49998 15.625C6.00885 15.625 3.82135 16.6015 2.5806 18.0715L0.969727 17.3085C2.49398 15.2522 5.29573 13.875 8.49998 13.875ZM8.49998 0.75C9.6603 0.75 10.7731 1.21094 11.5936 2.03141C12.414 2.85188 12.875 3.96468 12.875 5.125V7.75C12.875 8.91032 12.414 10.0231 11.5936 10.8436C10.7731 11.6641 9.6603 12.125 8.49998 12.125C7.33965 12.125 6.22686 11.6641 5.40638 10.8436C4.58591 10.0231 4.12498 8.91032 4.12498 7.75V5.125C4.12498 3.96468 4.58591 2.85188 5.40638 2.03141C6.22686 1.21094 7.33965 0.75 8.49998 0.75Z" fill="#EAEAEA"/>
</svg>
