<svg width="28" height="28" viewBox="0 0 28 28" fill="none" xmlns="http://www.w3.org/2000/svg">
<path d="M14 25.6667C7.55651 25.6667 2.33334 20.4435 2.33334 14C2.33334 7.55651 7.55651 2.33334 14 2.33334C20.4435 2.33334 25.6667 7.55651 25.6667 14C25.6667 20.4435 20.4435 25.6667 14 25.6667ZM14 23.3333C16.4754 23.3333 18.8493 22.35 20.5997 20.5997C22.35 18.8493 23.3333 16.4754 23.3333 14C23.3333 11.5247 22.35 9.15069 20.5997 7.40035C18.8493 5.65001 16.4754 4.66668 14 4.66668C11.5247 4.66668 9.15069 5.65001 7.40035 7.40035C5.65001 9.15069 4.66668 11.5247 4.66668 14C4.66668 16.4754 5.65001 18.8493 7.40035 20.5997C9.15069 22.35 11.5247 23.3333 14 23.3333V23.3333ZM12.8368 18.6667L7.88668 13.7165L9.53634 12.0668L12.8368 15.3673L19.4355 8.76751L21.0863 10.4172L12.8368 18.6667Z" fill="#7BFFB8"/>
</svg>
